# xmcd
#
# Track frame offsets: 
#        150
#        12441
#        24339
#        40169
#        49366
#        64935
#        77632
#        88084
#        99860
#        112035
#        121384
#        133529
#        143860
#        153964
#        162853
#        176261
#        187179
#        200456
#        213711
#
# Disc length: 2990 seconds
#
# Revision: 2
# Processed by: cddbd v1.5.2PL0 Copyright (c) Steve Scherf et al.
# Submitted via: ExactAudioCopyFreeDBPlugin 1.0
#
DISCID=070bac13
DTITLE=The Isley Brothers - It's Our Thing
DYEAR=1969
DGENRE=Rhythm and Blues
TTITLE0=I Know Who You Been Socking it To
TTITLE1=Somebody Been Messin'
TTITLE2=Save Me
TTITLE3=I Must Be Losing My Touch
TTITLE4=Feel Like the World
TTITLE5=It's Your Thing
TTITLE6=Give the Women What They Want
TTITLE7=Love is What You Make It
TTITLE8=Don't Give It Away
TTITLE9=He's Got Your Love
TTITLE10=I Know Who You Been Socking it To (performed by Dave "Baby" C
TTITLE10=ortez from the album "The Isley Brothers Way") (bonus track)
TTITLE11=Somebody Been Messin' (bonus track) (performed by Dave "Baby"
TTITLE11=Cortez from the album "The Isley Brothers Way") (bonus track
TTITLE11=)
TTITLE12=From the Beginning (performed by The Sweet Cherries) (bonus t
TTITLE12=rack)
TTITLE13=He's Got Your Love (performed by Judy White) (bonus track)
TTITLE14=It's Your Thing (single) (mono) (bonus track)
TTITLE15=Somebody Been Messin' (mono) (performed by Judy White) (bonus
TTITLE15=track)
TTITLE16=Love Is What You Make It (performed by The Sweet Cherries) (b
TTITLE16=onus track)
TTITLE17=Don't Give It Away (single B-side) (mono) (bonus track)
TTITLE18=Somebody Been Messin' (instrumental) (single B-side) (mono) (
TTITLE18=bonus track)
EXTD=
EXTT0=
EXTT1=
EXTT2=
EXTT3=
EXTT4=
EXTT5=
EXTT6=
EXTT7=
EXTT8=
EXTT9=
EXTT10=
EXTT11=
EXTT12=
EXTT13=
EXTT14=
EXTT15=
EXTT16=
EXTT17=
EXTT18=
PLAYORDER=
